<svg width="198" height="48" viewBox="0 0 198 48" fill="none" xmlns="http://www.w3.org/2000/svg">
<path d="M50.5 13.9375C50.5 19.6803 45.616 24.375 39.5417 24.375C33.4674 24.375 28.5834 19.6803 28.5834 13.9375C28.5834 8.19469 33.4674 3.5 39.5417 3.5C45.616 3.5 50.5 8.19469 50.5 13.9375Z" fill="#FFB800" stroke="black"/>
<path d="M48.9332 35.6229H3.09986C-3.1501 23.1229 5.70404 12.7062 14.5582 22.0812C11.4332 8.01873 32.7873 1.76874 34.8706 23.1229C46.329 12.7063 54.1415 24.6854 48.9332 35.6229Z" fill="#C4C4C4" stroke="black"/>
<path d="M48.9166 40.5L51 44.1458" stroke="#00FFFF"/>
<path d="M5.16663 40.5L7.24996 44.1458" stroke="#00FFFF"/>
<path d="M23.9166 40.5L26 44.1458" stroke="#00FFFF"/>
<path d="M42.6666 40.5L44.7499 44.1458" stroke="#00FFFF"/>
<path d="M36.4166 40.5L38.4999 44.1458" stroke="#00FFFF"/>
<path d="M30.1666 40.5L32.25 44.1458" stroke="#00FFFF"/>
<path d="M17.6666 40.5L19.7499 44.1458" stroke="#00FFFF"/>
<path d="M11.4166 40.5L13.5 44.1458" stroke="#00FFFF"/>
<path d="M91.496 12.696L85.032 35H81.768L76.584 17.048L71.208 35L67.976 35.032L61.736 12.696H64.84L69.704 31.608L75.08 12.696H78.344L83.464 31.544L88.36 12.696H91.496ZM110.683 25.56C110.683 26.1147 110.651 26.7013 110.587 27.32H96.5708C96.6774 29.048 97.2641 30.4027 98.3308 31.384C99.4188 32.344 100.731 32.824 102.267 32.824C103.525 32.824 104.571 32.536 105.403 31.96C106.256 31.3627 106.853 30.5733 107.195 29.592H110.331C109.861 31.2773 108.923 32.6533 107.515 33.72C106.107 34.7653 104.357 35.288 102.267 35.288C100.603 35.288 99.1094 34.9147 97.7868 34.168C96.4854 33.4213 95.4614 32.3653 94.7148 31C93.9681 29.6133 93.5948 28.0133 93.5948 26.2C93.5948 24.3867 93.9574 22.7973 94.6828 21.432C95.4081 20.0667 96.4214 19.0213 97.7228 18.296C99.0454 17.5493 100.56 17.176 102.267 17.176C103.931 17.176 105.403 17.5387 106.683 18.264C107.963 18.9893 108.944 19.992 109.627 21.272C110.331 22.5307 110.683 23.96 110.683 25.56ZM107.675 24.952C107.675 23.8427 107.429 22.8933 106.939 22.104C106.448 21.2933 105.776 20.6853 104.923 20.28C104.091 19.8533 103.163 19.64 102.139 19.64C100.667 19.64 99.4081 20.1093 98.3628 21.048C97.3388 21.9867 96.7521 23.288 96.6028 24.952H107.675ZM113.439 26.168C113.439 24.376 113.801 22.808 114.527 21.464C115.252 20.0987 116.244 19.0427 117.503 18.296C118.783 17.5493 120.201 17.176 121.759 17.176C123.295 17.176 124.628 17.5067 125.759 18.168C126.889 18.8293 127.732 19.6613 128.287 20.664V17.464H131.231V35H128.287V31.736C127.711 32.76 126.847 33.6133 125.695 34.296C124.564 34.9573 123.241 35.288 121.727 35.288C120.169 35.288 118.761 34.904 117.503 34.136C116.244 33.368 115.252 32.2907 114.527 30.904C113.801 29.5173 113.439 27.9387 113.439 26.168ZM128.287 26.2C128.287 24.8773 128.02 23.7253 127.487 22.744C126.953 21.7627 126.228 21.016 125.311 20.504C124.415 19.9707 123.423 19.704 122.335 19.704C121.247 19.704 120.255 19.96 119.359 20.472C118.463 20.984 117.748 21.7307 117.215 22.712C116.681 23.6933 116.415 24.8453 116.415 26.168C116.415 27.512 116.681 28.6853 117.215 29.688C117.748 30.6693 118.463 31.4267 119.359 31.96C120.255 32.472 121.247 32.728 122.335 32.728C123.423 32.728 124.415 32.472 125.311 31.96C126.228 31.4267 126.953 30.6693 127.487 29.688C128.02 28.6853 128.287 27.5227 128.287 26.2ZM139.704 19.864V30.2C139.704 31.0533 139.885 31.6613 140.248 32.024C140.61 32.3653 141.24 32.536 142.135 32.536H144.28V35H141.656C140.034 35 138.818 34.6267 138.008 33.88C137.197 33.1333 136.792 31.9067 136.792 30.2V19.864H134.52V17.464H136.792V13.048H139.704V17.464H144.28V19.864H139.704ZM156.512 17.144C157.834 17.144 159.029 17.432 160.096 18.008C161.162 18.5627 161.994 19.4053 162.592 20.536C163.21 21.6667 163.52 23.0427 163.52 24.664V35H160.64V25.08C160.64 23.3307 160.202 21.9973 159.328 21.08C158.453 20.1413 157.258 19.672 155.744 19.672C154.208 19.672 152.981 20.152 152.064 21.112C151.168 22.072 150.72 23.4693 150.72 25.304V35H147.808V11.32H150.72V19.96C151.296 19.064 152.085 18.3707 153.088 17.88C154.112 17.3893 155.253 17.144 156.512 17.144ZM184.277 25.56C184.277 26.1147 184.245 26.7013 184.181 27.32H170.165C170.271 29.048 170.858 30.4027 171.925 31.384C173.013 32.344 174.325 32.824 175.861 32.824C177.119 32.824 178.165 32.536 178.997 31.96C179.85 31.3627 180.447 30.5733 180.789 29.592H183.925C183.455 31.2773 182.517 32.6533 181.109 33.72C179.701 34.7653 177.951 35.288 175.861 35.288C174.197 35.288 172.703 34.9147 171.381 34.168C170.079 33.4213 169.055 32.3653 168.309 31C167.562 29.6133 167.189 28.0133 167.189 26.2C167.189 24.3867 167.551 22.7973 168.277 21.432C169.002 20.0667 170.015 19.0213 171.317 18.296C172.639 17.5493 174.154 17.176 175.861 17.176C177.525 17.176 178.997 17.5387 180.277 18.264C181.557 18.9893 182.538 19.992 183.221 21.272C183.925 22.5307 184.277 23.96 184.277 25.56ZM181.269 24.952C181.269 23.8427 181.023 22.8933 180.533 22.104C180.042 21.2933 179.37 20.6853 178.517 20.28C177.685 19.8533 176.757 19.64 175.733 19.64C174.261 19.64 173.002 20.1093 171.957 21.048C170.933 21.9867 170.346 23.288 170.197 24.952H181.269ZM191.032 20.312C191.544 19.3093 192.27 18.5307 193.208 17.976C194.168 17.4213 195.331 17.144 196.696 17.144V20.152H195.928C192.664 20.152 191.032 21.9227 191.032 25.464V35H188.12V17.464H191.032V20.312Z" fill="black"/>
</svg>
