<svg width="52" height="42" viewBox="0 0 52 42" fill="none" xmlns="http://www.w3.org/2000/svg">
<path d="M50.5 10.9375C50.5 16.6803 45.616 21.375 39.5417 21.375C33.4674 21.375 28.5834 16.6803 28.5834 10.9375C28.5834 5.19469 33.4674 0.5 39.5417 0.5C45.616 0.5 50.5 5.19469 50.5 10.9375Z" fill="#FFB800" stroke="black"/>
<path d="M48.9332 32.6229H3.09986C-3.1501 20.1229 5.70404 9.70621 14.5582 19.0812C11.4332 5.01873 32.7873 -1.23126 34.8706 20.1229C46.329 9.70625 54.1415 21.6854 48.9332 32.6229Z" fill="#C4C4C4" stroke="black"/>
<path d="M48.9166 37.5L51 41.1458" stroke="#00FFFF"/>
<path d="M5.16663 37.5L7.24996 41.1458" stroke="#00FFFF"/>
<path d="M23.9166 37.5L26 41.1458" stroke="#00FFFF"/>
<path d="M42.6666 37.5L44.7499 41.1458" stroke="#00FFFF"/>
<path d="M36.4166 37.5L38.4999 41.1458" stroke="#00FFFF"/>
<path d="M30.1666 37.5L32.25 41.1458" stroke="#00FFFF"/>
<path d="M17.6666 37.5L19.7499 41.1458" stroke="#00FFFF"/>
<path d="M11.4166 37.5L13.5 41.1458" stroke="#00FFFF"/>
</svg>
